<mxfile host="Electron" agent="Mozilla/5.0 (Macintosh; Intel Mac OS X 10_15_7) AppleWebKit/537.36 (KHTML, like Gecko) draw.io/28.1.2 Chrome/138.0.7204.243 Electron/37.4.0 Safari/537.36" version="28.1.2">
  <diagram name="Page-1" id="ln89lhBFrcJMoJMAGzGQ">
    <mxGraphModel dx="786" dy="579" grid="1" gridSize="10" guides="1" tooltips="1" connect="1" arrows="1" fold="1" page="1" pageScale="1" pageWidth="827" pageHeight="1169" math="0" shadow="0">
      <root>
        <mxCell id="0" />
        <mxCell id="1" parent="0" />
        <mxCell id="hH-u9sPNXBciVPoesBNr-1" value="HA &amp; Disaster Recovery" style="whiteSpace=wrap;strokeWidth=2;" vertex="1" parent="1">
          <mxGeometry x="648" y="1417" width="3392" height="128" as="geometry" />
        </mxCell>
        <mxCell id="hH-u9sPNXBciVPoesBNr-2" value="Offline External Repositories" style="whiteSpace=wrap;strokeWidth=2;" vertex="1" parent="1">
          <mxGeometry x="3351" y="20" width="831" height="128" as="geometry" />
        </mxCell>
        <mxCell id="hH-u9sPNXBciVPoesBNr-3" value="Registry &amp; Helm Mirror Zone" style="whiteSpace=wrap;strokeWidth=2;" vertex="1" parent="1">
          <mxGeometry x="1455" y="633" width="640" height="152" as="geometry" />
        </mxCell>
        <mxCell id="hH-u9sPNXBciVPoesBNr-4" value="Security Zone" style="whiteSpace=wrap;strokeWidth=2;" vertex="1" parent="1">
          <mxGeometry x="20" y="20" width="3188" height="128" as="geometry" />
        </mxCell>
        <mxCell id="hH-u9sPNXBciVPoesBNr-5" value="Observability Zone" style="whiteSpace=wrap;strokeWidth=2;" vertex="1" parent="1">
          <mxGeometry x="80" y="432" width="640" height="741" as="geometry" />
        </mxCell>
        <mxCell id="hH-u9sPNXBciVPoesBNr-6" value="Storage Zone" style="whiteSpace=wrap;strokeWidth=2;" vertex="1" parent="1">
          <mxGeometry x="740" y="1045" width="330" height="322" as="geometry" />
        </mxCell>
        <mxCell id="hH-u9sPNXBciVPoesBNr-7" value="Data Plane Zone" style="whiteSpace=wrap;strokeWidth=2;" vertex="1" parent="1">
          <mxGeometry x="1090" y="876" width="1136" height="298" as="geometry" />
        </mxCell>
        <mxCell id="hH-u9sPNXBciVPoesBNr-8" value="Control Plane Zone" style="whiteSpace=wrap;strokeWidth=2;" vertex="1" parent="1">
          <mxGeometry x="2246" y="633" width="1302" height="734" as="geometry" />
        </mxCell>
        <mxCell id="hH-u9sPNXBciVPoesBNr-9" value="Management Zone" style="whiteSpace=wrap;strokeWidth=2;" vertex="1" parent="1">
          <mxGeometry x="3299" y="239" width="738" height="322" as="geometry" />
        </mxCell>
        <mxCell id="hH-u9sPNXBciVPoesBNr-10" value="Rancher HA Management Plane" style="whiteSpace=wrap;strokeWidth=2;" vertex="1" parent="1">
          <mxGeometry x="3577" y="264" width="260" height="78" as="geometry" />
        </mxCell>
        <mxCell id="hH-u9sPNXBciVPoesBNr-11" value="HashiCorp Vault HA (Secrets Mgmt)" style="whiteSpace=wrap;strokeWidth=2;" vertex="1" parent="1">
          <mxGeometry x="3587" y="457" width="260" height="78" as="geometry" />
        </mxCell>
        <mxCell id="hH-u9sPNXBciVPoesBNr-12" value="RKE2 Control Plane (etcd quorum)" style="whiteSpace=wrap;strokeWidth=2;" vertex="1" parent="1">
          <mxGeometry x="3082" y="670" width="260" height="78" as="geometry" />
        </mxCell>
        <mxCell id="hH-u9sPNXBciVPoesBNr-13" value="Cilium CNI Plugin" style="whiteSpace=wrap;strokeWidth=2;" vertex="1" parent="1">
          <mxGeometry x="2320" y="1082" width="183" height="54" as="geometry" />
        </mxCell>
        <mxCell id="hH-u9sPNXBciVPoesBNr-14" value="Hubble Observability (L3/L4/L7)" style="whiteSpace=wrap;strokeWidth=2;" vertex="1" parent="1">
          <mxGeometry x="2281" y="1264" width="260" height="78" as="geometry" />
        </mxCell>
        <mxCell id="hH-u9sPNXBciVPoesBNr-15" value="RKE2 Worker Nodes" style="whiteSpace=wrap;strokeWidth=2;" vertex="1" parent="1">
          <mxGeometry x="1503" y="901" width="199" height="54" as="geometry" />
        </mxCell>
        <mxCell id="hH-u9sPNXBciVPoesBNr-16" value="NGINX Ingress Controller" style="whiteSpace=wrap;strokeWidth=2;" vertex="1" parent="1">
          <mxGeometry x="1752" y="901" width="236" height="54" as="geometry" />
        </mxCell>
        <mxCell id="hH-u9sPNXBciVPoesBNr-17" value="F5/HAProxy Load Balancer" style="whiteSpace=wrap;strokeWidth=2;" vertex="1" parent="1">
          <mxGeometry x="1705" y="1082" width="250" height="54" as="geometry" />
        </mxCell>
        <mxCell id="hH-u9sPNXBciVPoesBNr-18" value="Longhorn CSI Storage" style="whiteSpace=wrap;strokeWidth=2;" vertex="1" parent="1">
          <mxGeometry x="799" y="1082" width="211" height="54" as="geometry" />
        </mxCell>
        <mxCell id="hH-u9sPNXBciVPoesBNr-19" value="Longhorn Replica &amp; Backup Targets" style="whiteSpace=wrap;strokeWidth=2;" vertex="1" parent="1">
          <mxGeometry x="775" y="1264" width="260" height="78" as="geometry" />
        </mxCell>
        <mxCell id="hH-u9sPNXBciVPoesBNr-20" value="Prometheus Metrics (TCP 9090)" style="whiteSpace=wrap;strokeWidth=2;" vertex="1" parent="1">
          <mxGeometry x="270" y="457" width="260" height="78" as="geometry" />
        </mxCell>
        <mxCell id="hH-u9sPNXBciVPoesBNr-21" value="Alertmanager (TCP 9093)" style="whiteSpace=wrap;strokeWidth=2;" vertex="1" parent="1">
          <mxGeometry x="125" y="901" width="240" height="54" as="geometry" />
        </mxCell>
        <mxCell id="hH-u9sPNXBciVPoesBNr-22" value="Grafana Dashboards (TCP 3000)" style="whiteSpace=wrap;strokeWidth=2;" vertex="1" parent="1">
          <mxGeometry x="115" y="1070" width="260" height="78" as="geometry" />
        </mxCell>
        <mxCell id="hH-u9sPNXBciVPoesBNr-23" value="ELK/EFK Log Collection (TCP 5044)" style="whiteSpace=wrap;strokeWidth=2;" vertex="1" parent="1">
          <mxGeometry x="425" y="1070" width="260" height="78" as="geometry" />
        </mxCell>
        <mxCell id="hH-u9sPNXBciVPoesBNr-24" value="RBAC Controls" style="whiteSpace=wrap;strokeWidth=2;" vertex="1" parent="1">
          <mxGeometry x="1865" y="57" width="161" height="54" as="geometry" />
        </mxCell>
        <mxCell id="hH-u9sPNXBciVPoesBNr-25" value="mTLS Encryption" style="whiteSpace=wrap;strokeWidth=2;" vertex="1" parent="1">
          <mxGeometry x="2093" y="57" width="180" height="54" as="geometry" />
        </mxCell>
        <mxCell id="hH-u9sPNXBciVPoesBNr-26" value="Image Signing &amp; Verification Policies" style="whiteSpace=wrap;strokeWidth=2;" vertex="1" parent="1">
          <mxGeometry x="2322" y="45" width="260" height="78" as="geometry" />
        </mxCell>
        <mxCell id="hH-u9sPNXBciVPoesBNr-27" value="CIS Benchmark Hardening" style="whiteSpace=wrap;strokeWidth=2;" vertex="1" parent="1">
          <mxGeometry x="2632" y="57" width="243" height="54" as="geometry" />
        </mxCell>
        <mxCell id="hH-u9sPNXBciVPoesBNr-28" value="Audit Logging &amp; Retention" style="whiteSpace=wrap;strokeWidth=2;" vertex="1" parent="1">
          <mxGeometry x="2926" y="57" width="247" height="54" as="geometry" />
        </mxCell>
        <mxCell id="hH-u9sPNXBciVPoesBNr-29" value="Internal Image Registry (Harbor/Artifactory) (TCP 5000)" style="whiteSpace=wrap;strokeWidth=2;" vertex="1" parent="1">
          <mxGeometry x="1800" y="658" width="260" height="102" as="geometry" />
        </mxCell>
        <mxCell id="hH-u9sPNXBciVPoesBNr-30" value="Helm Chart Mirror (TCP 80/443)" style="whiteSpace=wrap;strokeWidth=2;" vertex="1" parent="1">
          <mxGeometry x="1490" y="670" width="260" height="78" as="geometry" />
        </mxCell>
        <mxCell id="hH-u9sPNXBciVPoesBNr-31" value="Offline OS/Package Repositories" style="whiteSpace=wrap;strokeWidth=2;" vertex="1" parent="1">
          <mxGeometry x="3577" y="45" width="260" height="78" as="geometry" />
        </mxCell>
        <mxCell id="hH-u9sPNXBciVPoesBNr-32" value="Secure Update &amp; Signature Verification" style="whiteSpace=wrap;strokeWidth=2;" vertex="1" parent="1">
          <mxGeometry x="3887" y="45" width="260" height="78" as="geometry" />
        </mxCell>
        <mxCell id="hH-u9sPNXBciVPoesBNr-33" value="etcd Quorum for Control Plane" style="whiteSpace=wrap;strokeWidth=2;" vertex="1" parent="1">
          <mxGeometry x="683" y="1442" width="260" height="78" as="geometry" />
        </mxCell>
        <mxCell id="hH-u9sPNXBciVPoesBNr-34" value="Backup: etcd, Vault, Longhorn, Rancher" style="whiteSpace=wrap;strokeWidth=2;" vertex="1" parent="1">
          <mxGeometry x="3074" y="1442" width="260" height="78" as="geometry" />
        </mxCell>
        <mxCell id="hH-u9sPNXBciVPoesBNr-35" value="m" style="whiteSpace=wrap;strokeWidth=2;" vertex="1" parent="1">
          <mxGeometry x="3243" y="57" width="73" height="54" as="geometry" />
        </mxCell>
        <mxCell id="hH-u9sPNXBciVPoesBNr-36" value="" style="whiteSpace=wrap;strokeWidth=2;" vertex="1" parent="1">
          <mxGeometry x="3450" y="928" as="geometry" />
        </mxCell>
        <mxCell id="hH-u9sPNXBciVPoesBNr-37" value="" style="whiteSpace=wrap;strokeWidth=2;" vertex="1" parent="1">
          <mxGeometry x="3261" y="1109" as="geometry" />
        </mxCell>
        <mxCell id="hH-u9sPNXBciVPoesBNr-38" value="API Server (TCP 6443) mTLS" style="curved=1;startArrow=none;endArrow=none;exitX=0.02;exitY=0.99;entryX=0.95;entryY=0;rounded=0;" edge="1" parent="1" source="hH-u9sPNXBciVPoesBNr-10" target="hH-u9sPNXBciVPoesBNr-12">
          <mxGeometry relative="1" as="geometry">
            <Array as="points">
              <mxPoint x="3440" y="387" />
              <mxPoint x="3440" y="633" />
            </Array>
          </mxGeometry>
        </mxCell>
        <mxCell id="hH-u9sPNXBciVPoesBNr-39" value="" style="curved=1;startArrow=none;endArrow=none;exitX=0.97;exitY=1;entryX=-Infinity;entryY=-Infinity;rounded=0;" edge="1" parent="1" source="hH-u9sPNXBciVPoesBNr-12" target="hH-u9sPNXBciVPoesBNr-36">
          <mxGeometry relative="1" as="geometry">
            <Array as="points">
              <mxPoint x="3450" y="785" />
            </Array>
          </mxGeometry>
        </mxCell>
        <mxCell id="hH-u9sPNXBciVPoesBNr-40" value="etcd (TCP 2379-2380) quorum" style="curved=1;startArrow=none;endArrow=none;exitX=-Infinity;exitY=-Infinity;entryX=Infinity;entryY=Infinity;rounded=0;" edge="1" parent="1" source="hH-u9sPNXBciVPoesBNr-36" target="hH-u9sPNXBciVPoesBNr-37">
          <mxGeometry relative="1" as="geometry">
            <Array as="points">
              <mxPoint x="3450" y="1045" />
            </Array>
          </mxGeometry>
        </mxCell>
        <mxCell id="hH-u9sPNXBciVPoesBNr-41" value="" style="curved=1;startArrow=none;endArrow=none;exitX=-Infinity;exitY=Infinity;entryX=0.59;entryY=1;rounded=0;" edge="1" parent="1" source="hH-u9sPNXBciVPoesBNr-37" target="hH-u9sPNXBciVPoesBNr-12">
          <mxGeometry relative="1" as="geometry">
            <Array as="points">
              <mxPoint x="3259" y="1045" />
              <mxPoint x="3259" y="785" />
            </Array>
          </mxGeometry>
        </mxCell>
        <mxCell id="hH-u9sPNXBciVPoesBNr-42" value="Kubelet (TCP 10250)" style="curved=1;startArrow=none;endArrow=none;exitX=0;exitY=0.66;entryX=1;entryY=0.38;rounded=0;" edge="1" parent="1" source="hH-u9sPNXBciVPoesBNr-12" target="hH-u9sPNXBciVPoesBNr-15">
          <mxGeometry relative="1" as="geometry">
            <Array as="points">
              <mxPoint x="2399" y="785" />
              <mxPoint x="2399" y="876" />
            </Array>
          </mxGeometry>
        </mxCell>
        <mxCell id="hH-u9sPNXBciVPoesBNr-43" value="Cilium datapath VXLAN/DirectRouting" style="curved=1;startArrow=none;endArrow=none;exitX=1;exitY=0.75;entryX=0;entryY=0.12;rounded=0;" edge="1" parent="1" source="hH-u9sPNXBciVPoesBNr-15" target="hH-u9sPNXBciVPoesBNr-13">
          <mxGeometry relative="1" as="geometry">
            <Array as="points">
              <mxPoint x="2128" y="1000" />
              <mxPoint x="2128" y="1045" />
            </Array>
          </mxGeometry>
        </mxCell>
        <mxCell id="hH-u9sPNXBciVPoesBNr-44" value="Observability (TCP 4244)" style="curved=1;startArrow=none;endArrow=none;exitX=0.5;exitY=1.01;entryX=0.5;entryY=0;rounded=0;" edge="1" parent="1" source="hH-u9sPNXBciVPoesBNr-13" target="hH-u9sPNXBciVPoesBNr-14">
          <mxGeometry relative="1" as="geometry">
            <Array as="points" />
          </mxGeometry>
        </mxCell>
        <mxCell id="hH-u9sPNXBciVPoesBNr-45" value="CSI Storage (TCP 9500)" style="curved=1;startArrow=none;endArrow=none;exitX=0.29;exitY=1;entryX=1;entryY=0.29;rounded=0;" edge="1" parent="1" source="hH-u9sPNXBciVPoesBNr-15" target="hH-u9sPNXBciVPoesBNr-18">
          <mxGeometry relative="1" as="geometry">
            <Array as="points">
              <mxPoint x="1490" y="1000" />
              <mxPoint x="1490" y="1045" />
            </Array>
          </mxGeometry>
        </mxCell>
        <mxCell id="hH-u9sPNXBciVPoesBNr-46" value="Replica communication (TCP 9501)" style="curved=1;startArrow=none;endArrow=none;exitX=0.5;exitY=1.01;entryX=0.5;entryY=0;rounded=0;" edge="1" parent="1" source="hH-u9sPNXBciVPoesBNr-18" target="hH-u9sPNXBciVPoesBNr-19">
          <mxGeometry relative="1" as="geometry">
            <Array as="points" />
          </mxGeometry>
        </mxCell>
        <mxCell id="hH-u9sPNXBciVPoesBNr-47" value="Fluentd (TCP 5044)" style="curved=1;startArrow=none;endArrow=none;exitX=0;exitY=0.81;entryX=1;entryY=0.33;rounded=0;" edge="1" parent="1" source="hH-u9sPNXBciVPoesBNr-15" target="hH-u9sPNXBciVPoesBNr-23">
          <mxGeometry relative="1" as="geometry">
            <Array as="points">
              <mxPoint x="1181" y="1000" />
              <mxPoint x="1181" y="1045" />
            </Array>
          </mxGeometry>
        </mxCell>
        <mxCell id="hH-u9sPNXBciVPoesBNr-48" value="Scrape Metrics (TCP 9090)" style="curved=1;startArrow=none;endArrow=none;exitX=0.64;exitY=1;entryX=0;entryY=0.46;rounded=0;" edge="1" parent="1" source="hH-u9sPNXBciVPoesBNr-20" target="hH-u9sPNXBciVPoesBNr-12">
          <mxGeometry relative="1" as="geometry">
            <Array as="points">
              <mxPoint x="458" y="560" />
              <mxPoint x="458" y="633" />
            </Array>
          </mxGeometry>
        </mxCell>
        <mxCell id="hH-u9sPNXBciVPoesBNr-49" value="Scrape Metrics (TCP 9090)" style="curved=1;startArrow=none;endArrow=none;exitX=0.36;exitY=1;entryX=0;entryY=0.42;rounded=0;" edge="1" parent="1" source="hH-u9sPNXBciVPoesBNr-20" target="hH-u9sPNXBciVPoesBNr-15">
          <mxGeometry relative="1" as="geometry">
            <Array as="points">
              <mxPoint x="342" y="560" />
              <mxPoint x="342" y="876" />
            </Array>
          </mxGeometry>
        </mxCell>
        <mxCell id="hH-u9sPNXBciVPoesBNr-50" value="Alert Push (TCP 9093)" style="curved=1;startArrow=none;endArrow=none;exitX=0.5;exitY=1;entryX=0.5;entryY=0.01;rounded=0;" edge="1" parent="1" source="hH-u9sPNXBciVPoesBNr-21" target="hH-u9sPNXBciVPoesBNr-22">
          <mxGeometry relative="1" as="geometry">
            <Array as="points" />
          </mxGeometry>
        </mxCell>
        <mxCell id="hH-u9sPNXBciVPoesBNr-51" value="Ingress HTTP/HTTPS (TCP 80/443)" style="curved=1;startArrow=none;endArrow=none;exitX=0.6;exitY=1;entryX=0.68;entryY=0.01;rounded=0;" edge="1" parent="1" source="hH-u9sPNXBciVPoesBNr-16" target="hH-u9sPNXBciVPoesBNr-17">
          <mxGeometry relative="1" as="geometry">
            <Array as="points">
              <mxPoint x="1936" y="1000" />
              <mxPoint x="1936" y="1045" />
            </Array>
          </mxGeometry>
        </mxCell>
        <mxCell id="hH-u9sPNXBciVPoesBNr-52" value="External to Internal Traffic" style="curved=1;startArrow=none;endArrow=none;exitX=0.32;exitY=0.01;entryX=0.27;entryY=1;rounded=0;" edge="1" parent="1" source="hH-u9sPNXBciVPoesBNr-17" target="hH-u9sPNXBciVPoesBNr-16">
          <mxGeometry relative="1" as="geometry">
            <Array as="points">
              <mxPoint x="1724" y="1045" />
              <mxPoint x="1724" y="1000" />
            </Array>
          </mxGeometry>
        </mxCell>
        <mxCell id="hH-u9sPNXBciVPoesBNr-53" value="Vault API (TCP 8200) for Secrets" style="curved=1;startArrow=none;endArrow=none;exitX=0.68;exitY=0.99;entryX=0.72;entryY=0;rounded=0;" edge="1" parent="1" source="hH-u9sPNXBciVPoesBNr-10" target="hH-u9sPNXBciVPoesBNr-11">
          <mxGeometry relative="1" as="geometry">
            <Array as="points">
              <mxPoint x="3811" y="387" />
              <mxPoint x="3811" y="432" />
            </Array>
          </mxGeometry>
        </mxCell>
        <mxCell id="hH-u9sPNXBciVPoesBNr-54" value="TLS Cert Management" style="curved=1;startArrow=none;endArrow=none;exitX=0;exitY=0.79;entryX=0.75;entryY=0;rounded=0;" edge="1" parent="1" source="hH-u9sPNXBciVPoesBNr-11" target="hH-u9sPNXBciVPoesBNr-12">
          <mxGeometry relative="1" as="geometry">
            <Array as="points">
              <mxPoint x="3339" y="560" />
              <mxPoint x="3339" y="633" />
            </Array>
          </mxGeometry>
        </mxCell>
        <mxCell id="hH-u9sPNXBciVPoesBNr-55" value="TLS Cert Management" style="curved=1;startArrow=none;endArrow=none;exitX=0.28;exitY=0;entryX=0.35;entryY=0.99;rounded=0;" edge="1" parent="1" source="hH-u9sPNXBciVPoesBNr-11" target="hH-u9sPNXBciVPoesBNr-10">
          <mxGeometry relative="1" as="geometry">
            <Array as="points">
              <mxPoint x="3623" y="432" />
              <mxPoint x="3623" y="387" />
            </Array>
          </mxGeometry>
        </mxCell>
        <mxCell id="hH-u9sPNXBciVPoesBNr-56" value="Image Pull/Push (TCP 5000)" style="curved=1;startArrow=none;endArrow=none;exitX=0.5;exitY=1;entryX=1;entryY=0.2;rounded=0;" edge="1" parent="1" source="hH-u9sPNXBciVPoesBNr-29" target="hH-u9sPNXBciVPoesBNr-15">
          <mxGeometry relative="1" as="geometry">
            <Array as="points">
              <mxPoint x="1930" y="876" />
            </Array>
          </mxGeometry>
        </mxCell>
        <mxCell id="hH-u9sPNXBciVPoesBNr-57" value="Helm Chart Install (TCP 80/443)" style="curved=1;startArrow=none;endArrow=none;exitX=0.5;exitY=1;entryX=0.55;entryY=0;rounded=0;" edge="1" parent="1" source="hH-u9sPNXBciVPoesBNr-30" target="hH-u9sPNXBciVPoesBNr-15">
          <mxGeometry relative="1" as="geometry">
            <Array as="points">
              <mxPoint x="1620" y="876" />
            </Array>
          </mxGeometry>
        </mxCell>
        <mxCell id="hH-u9sPNXBciVPoesBNr-58" value="Offline package sync, no external egress" style="curved=1;startArrow=none;endArrow=none;exitX=0.59;exitY=1;entryX=0.59;entryY=-0.01;rounded=0;" edge="1" parent="1" source="hH-u9sPNXBciVPoesBNr-31" target="hH-u9sPNXBciVPoesBNr-10">
          <mxGeometry relative="1" as="geometry">
            <Array as="points">
              <mxPoint x="3744" y="148" />
              <mxPoint x="3744" y="239" />
            </Array>
          </mxGeometry>
        </mxCell>
        <mxCell id="hH-u9sPNXBciVPoesBNr-59" value="Offline package sync, no external egress" style="curved=1;startArrow=none;endArrow=none;exitX=0;exitY=0.92;entryX=0.46;entryY=0;rounded=0;" edge="1" parent="1" source="hH-u9sPNXBciVPoesBNr-31" target="hH-u9sPNXBciVPoesBNr-12">
          <mxGeometry relative="1" as="geometry">
            <Array as="points">
              <mxPoint x="3454" y="148" />
              <mxPoint x="3189" y="193" />
              <mxPoint x="3189" y="633" />
            </Array>
          </mxGeometry>
        </mxCell>
        <mxCell id="hH-u9sPNXBciVPoesBNr-60" value="" style="curved=1;startArrow=none;endArrow=block;exitX=0.93;exitY=0.99;entryX=1;entryY=0.36;rounded=0;" edge="1" parent="1" source="hH-u9sPNXBciVPoesBNr-10" target="hH-u9sPNXBciVPoesBNr-34">
          <mxGeometry relative="1" as="geometry">
            <Array as="points">
              <mxPoint x="3947" y="387" />
              <mxPoint x="3947" y="1417" />
            </Array>
          </mxGeometry>
        </mxCell>
        <mxCell id="hH-u9sPNXBciVPoesBNr-61" value="" style="curved=1;startArrow=none;endArrow=block;exitX=0.5;exitY=1;entryX=1;entryY=0.29;rounded=0;" edge="1" parent="1" source="hH-u9sPNXBciVPoesBNr-11" target="hH-u9sPNXBciVPoesBNr-34">
          <mxGeometry relative="1" as="geometry">
            <Array as="points">
              <mxPoint x="3717" y="1417" />
            </Array>
          </mxGeometry>
        </mxCell>
        <mxCell id="hH-u9sPNXBciVPoesBNr-62" value="" style="curved=1;startArrow=none;endArrow=block;exitX=0.5;exitY=1;entryX=0;entryY=0.45;rounded=0;" edge="1" parent="1" source="hH-u9sPNXBciVPoesBNr-19" target="hH-u9sPNXBciVPoesBNr-34">
          <mxGeometry relative="1" as="geometry">
            <Array as="points">
              <mxPoint x="905" y="1417" />
            </Array>
          </mxGeometry>
        </mxCell>
        <mxCell id="hH-u9sPNXBciVPoesBNr-63" value="" style="curved=1;startArrow=none;endArrow=block;exitX=1.01;exitY=0.65;entryX=0;entryY=0.06;rounded=0;" edge="1" parent="1" source="hH-u9sPNXBciVPoesBNr-24" target="hH-u9sPNXBciVPoesBNr-10">
          <mxGeometry relative="1" as="geometry">
            <Array as="points">
              <mxPoint x="2575" y="148" />
              <mxPoint x="3460" y="193" />
              <mxPoint x="3460" y="239" />
            </Array>
          </mxGeometry>
        </mxCell>
        <mxCell id="hH-u9sPNXBciVPoesBNr-64" value="" style="curved=1;startArrow=none;endArrow=block;exitX=1.01;exitY=0.73;entryX=0;entryY=0.35;rounded=0;" edge="1" parent="1" source="hH-u9sPNXBciVPoesBNr-24" target="hH-u9sPNXBciVPoesBNr-12">
          <mxGeometry relative="1" as="geometry">
            <Array as="points">
              <mxPoint x="2358" y="148" />
              <mxPoint x="2358" y="633" />
            </Array>
          </mxGeometry>
        </mxCell>
        <mxCell id="hH-u9sPNXBciVPoesBNr-65" value="" style="curved=1;startArrow=none;endArrow=block;exitX=0;exitY=0.55;entryX=0;entryY=0.28;rounded=0;" edge="1" parent="1" source="hH-u9sPNXBciVPoesBNr-24" target="hH-u9sPNXBciVPoesBNr-15">
          <mxGeometry relative="1" as="geometry">
            <Array as="points">
              <mxPoint x="60" y="148" />
              <mxPoint x="60" y="633" />
              <mxPoint x="1168" y="709" />
              <mxPoint x="1168" y="876" />
            </Array>
          </mxGeometry>
        </mxCell>
      </root>
    </mxGraphModel>
  </diagram>
</mxfile>
